<svg width="149" height="21" viewBox="0 0 149 21" fill="none" xmlns="http://www.w3.org/2000/svg">
<path d="M0.96 17V0.199999H6.576V12.2H14.472V17H0.96ZM27.5398 15.296C26.1478 16.64 24.3878 17.312 22.2598 17.312C20.1318 17.312 18.3718 16.648 16.9798 15.32C15.6038 13.992 14.9158 12.384 14.9158 10.496V10.448C14.9158 8.56 15.6118 6.944 17.0038 5.6C18.4118 4.256 20.1798 3.584 22.3078 3.584C24.4358 3.584 26.1878 4.248 27.5638 5.576C28.9558 6.904 29.6518 8.512 29.6518 10.4V10.448C29.6518 12.336 28.9478 13.952 27.5398 15.296ZM20.7718 12.104C21.1878 12.552 21.6998 12.776 22.3078 12.776C22.9158 12.776 23.4198 12.56 23.8198 12.128C24.2198 11.68 24.4198 11.136 24.4198 10.496V10.448C24.4198 9.792 24.2118 9.24 23.7958 8.792C23.3798 8.344 22.8678 8.12 22.2598 8.12C21.6518 8.12 21.1478 8.344 20.7478 8.792C20.3478 9.224 20.1478 9.76 20.1478 10.4V10.448C20.1478 11.104 20.3558 11.656 20.7718 12.104ZM30.8863 17V3.896H36.3343V6.536C37.1663 4.568 38.5343 3.624 40.4383 3.704V9.488H39.8623C37.5103 9.488 36.3343 10.88 36.3343 13.664V17H30.8863ZM48.0377 17.312C45.8777 17.312 44.1337 16.688 42.8057 15.44C41.4937 14.192 40.8377 12.552 40.8377 10.52V10.472C40.8377 8.504 41.4697 6.864 42.7337 5.552C44.0137 4.24 45.6297 3.584 47.5817 3.584C49.8217 3.584 51.5177 4.264 52.6697 5.624C53.8217 6.968 54.3977 8.696 54.3977 10.808C54.3977 11.224 54.3897 11.528 54.3737 11.72H45.9497C46.3337 12.888 47.1577 13.472 48.4217 13.472C49.3337 13.472 50.2217 13.024 51.0857 12.128L54.0137 14.456C52.5417 16.36 50.5497 17.312 48.0377 17.312ZM45.8777 9.32H49.4297C49.3657 8.712 49.1657 8.232 48.8297 7.88C48.5097 7.528 48.1017 7.352 47.6057 7.352C47.1417 7.352 46.7577 7.528 46.4537 7.88C46.1497 8.216 45.9577 8.696 45.8777 9.32ZM55.5894 17V3.896H61.0374V5.648C62.1094 4.272 63.4294 3.584 64.9974 3.584C66.8214 3.584 68.1094 4.304 68.8614 5.744C70.1574 4.304 71.6374 3.584 73.3014 3.584C74.7094 3.584 75.8134 4.008 76.6134 4.856C77.4294 5.704 77.8374 6.872 77.8374 8.36V17H72.3894V10.064C72.3894 9.52 72.2534 9.096 71.9814 8.792C71.7094 8.488 71.3654 8.336 70.9494 8.336C70.5334 8.336 70.1734 8.488 69.8694 8.792C69.5814 9.096 69.4374 9.52 69.4374 10.064V17H63.9894V10.064C63.9894 9.52 63.8534 9.096 63.5814 8.792C63.3094 8.488 62.9654 8.336 62.5494 8.336C62.1334 8.336 61.7734 8.488 61.4694 8.792C61.1814 9.096 61.0374 9.52 61.0374 10.064V17H55.5894ZM81.2265 17V0.199999H82.4745V17H81.2265ZM87.3804 20.84V4.76H88.5564V7.496C89.8524 5.48 91.5324 4.472 93.5964 4.472C95.1644 4.472 96.5484 5.056 97.7484 6.224C98.9484 7.392 99.5484 8.928 99.5484 10.832V10.88C99.5484 12.768 98.9484 14.312 97.7484 15.512C96.5484 16.696 95.1644 17.288 93.5964 17.288C91.5484 17.288 89.8684 16.312 88.5564 14.36V20.84H87.3804ZM93.4764 16.16C94.8524 16.16 95.9964 15.688 96.9084 14.744C97.8204 13.8 98.2764 12.528 98.2764 10.928V10.88C98.2764 9.312 97.8044 8.04 96.8604 7.064C95.9324 6.088 94.8044 5.6 93.4764 5.6C92.1484 5.6 90.9804 6.096 89.9724 7.088C88.9804 8.08 88.4844 9.336 88.4844 10.856V10.904C88.4844 12.424 88.9804 13.68 89.9724 14.672C90.9804 15.664 92.1484 16.16 93.4764 16.16ZM107.184 17.24C105.328 17.24 103.656 16.648 102.168 15.464L102.864 14.528C104.256 15.6 105.72 16.136 107.256 16.136C108.104 16.136 108.808 15.928 109.368 15.512C109.928 15.08 110.208 14.512 110.208 13.808V13.76C110.208 13.408 110.128 13.104 109.968 12.848C109.808 12.592 109.552 12.368 109.2 12.176C108.848 11.984 108.52 11.832 108.216 11.72C107.912 11.608 107.496 11.472 106.968 11.312C106.392 11.152 105.976 11.032 105.72 10.952C105.48 10.872 105.12 10.728 104.64 10.52C104.176 10.312 103.84 10.112 103.632 9.92C103.424 9.712 103.224 9.44 103.032 9.104C102.856 8.768 102.768 8.384 102.768 7.952V7.904C102.768 6.912 103.144 6.104 103.896 5.48C104.648 4.84 105.616 4.52 106.8 4.52C108.384 4.52 109.832 4.968 111.144 5.864L110.52 6.848C109.288 6.032 108.032 5.624 106.752 5.624C105.92 5.624 105.248 5.824 104.736 6.224C104.224 6.624 103.968 7.136 103.968 7.76V7.808C103.968 8.128 104.048 8.416 104.208 8.672C104.384 8.912 104.664 9.128 105.048 9.32C105.448 9.512 105.784 9.664 106.056 9.776C106.344 9.872 106.784 10.008 107.376 10.184C108 10.36 108.496 10.528 108.864 10.688C109.248 10.832 109.656 11.04 110.088 11.312C110.536 11.568 110.864 11.888 111.072 12.272C111.296 12.656 111.408 13.104 111.408 13.616V13.664C111.408 14.736 111.008 15.6 110.208 16.256C109.408 16.912 108.4 17.24 107.184 17.24ZM119.81 17.288C118.29 17.288 117.09 16.824 116.21 15.896C115.346 14.968 114.914 13.752 114.914 12.248V4.76H116.09V12.032C116.09 13.312 116.426 14.328 117.098 15.08C117.786 15.832 118.746 16.208 119.978 16.208C121.194 16.208 122.202 15.8 123.002 14.984C123.818 14.168 124.226 13.12 124.226 11.84V4.76H125.402V17H124.226V14.72C123.234 16.432 121.762 17.288 119.81 17.288ZM129.873 17V4.76H131.049V6.944C132.041 5.296 133.401 4.472 135.129 4.472C137.017 4.472 138.393 5.352 139.257 7.112C140.281 5.352 141.753 4.472 143.673 4.472C145.113 4.472 146.257 4.936 147.105 5.864C147.953 6.792 148.377 8.032 148.377 9.584V17H147.201V9.728C147.201 8.4 146.881 7.376 146.241 6.656C145.601 5.92 144.713 5.552 143.577 5.552C142.489 5.552 141.569 5.944 140.817 6.728C140.081 7.496 139.713 8.544 139.713 9.872V17H138.537V9.656C138.537 8.376 138.217 7.376 137.577 6.656C136.937 5.92 136.065 5.552 134.961 5.552C133.857 5.552 132.929 5.976 132.177 6.824C131.425 7.672 131.049 8.712 131.049 9.944V17H129.873Z" fill="#E7E7E7"/>
</svg>
